<?xml version="1.0" encoding="UTF-8" standalone="no"?>
<svg width="512px" height="159px" viewBox="0 0 512 159" version="1.1" xmlns="http://www.w3.org/2000/svg" xmlns:xlink="http://www.w3.org/1999/xlink" preserveAspectRatio="xMidYMid">
	<path d="M483.5,52.3 C485.2,52.3,486.3,53.5,486.7,55.04 C487.57,58.4,483.2,66.8,467.7,76.3 C468,65.3,474.7,52.3,483.5,52.3 M436.1,52.3 C438.7,52.3,438.9,54.8,439,55.8 C439.7,60.54,435.2,69.1,420.7,74 C422.2,63.8,428.9,52.3,436.1,52.3 M373.5,12.2 C378.4,12.2,374.4,28.9,358.8,52.3 C362.3,21.3,367.5,12.2,373.5,12.2 M319.6,52.3 C321.1,52.3,321.4,53.5,321.6,54.04 C322.2,56.16,320,64.6,303.1,76.3 C304.1,65.3,311,52.3,319.6,52.3 M249.9,147.3 C248.2,147.3,247,146.2,247,144 C247,133.9,262.7,120.2,262.9,120.1 C260.7,133.6,255.2,147.3,249.9,147.3 M509.4,80.8 C506.7,79,503.2,79.8,501.4,82.3 C501.07,82.8,494.07,92.9,481.9,92.9 C477.07,92.9,473.5,91.4,471.07,88.58 C470.9,88.38,470.75,88.17,470.57,87.9 C470.7,87.9,470.7,87.8,470.75,87.8 C499.44,71.3,499.25,57.3,497.9,52.04 C496.2,45.8,490.57,41.66,483.5,41.66 C467.1,41.66,456.1,60,456.1,77.1 C456.1,79.3,456.3,81.3,456.6,83.3 C450.8,87.6,441.7,92.8,433.8,92.8 C429.2,92.8,425.7,91.4,423.5,88.8 C422.7,87.8,422.1,86.8,421.6,85.6 C443.6,79.1,451.9,65.1,450.4,53.9 C449.4,46.66,443.9,41.4,437.1,41.4 C421.8,41.4,410.8,57.54,409,73.5 C406.1,73.2,403.4,72.3,401.1,70.9 C401.5,68.4,401.7,65.9,401.7,63.50 C401.7,58.34,400.7,53.80,398.8,50.46 C396.2,45.84,392.1,43.2,387.1,43.2 C384.4,43.2,382.6,44.7,380.7,47.1 C377.9,52.34,379.7,62.46,384.9,70.5 C385.9,72.1,387.0,73.5,388.2,74.9 C385.3,84.10,379.4,92.80,371.7,92.80 C368.2,92.80,365.6,91.7,363.5,89.4 C360.5,86.10,358.5,80.2,357.9,72.7 C379.5,45.84,389.9,19.46,384.0,6.96 C382.0,2.705,378.2,0.205,373.64,0.205 C358.76,0.205,349.8,19.50,346.5,59.2 C346.3,61.6,346.14,64.60,346.2,67.8 C338.2,78.6,325.2,92.6,313.4,92.6 C310.0,92.6,307.6,91.5,305.9,89.1 C305.7,88.8,305.6,88.6,305.5,88.5 C305.64,88.4,305.8,88.3,305.9,88.3 C334.8,69.6,334.4,55.54,332.9,50.4 C331.2,44.8,326.2,41.3,319.8,41.3 C303.6,41.3,291.7,60.54,291.7,78.6 C291.7,80.28,291.8,81.8,292.6,83.3 C286.7,87.1,282.3,90.6,278.1,93.8 C278.7,88.9,279.7,82.6,280.7,73.28 L280.7,73.28 C280.9,71.38,281.2,69.88,281.3,69.08 C282.2,62.28,271.0,60.78,269.8,68.4 C268.5,76.3,265.2,92.6,255.92,92.6 C250.33,92.6,247.42,86.3,247.92,77.3 C248.83,63.1,256.4,51.6,265.9,51.6 C269.2,51.6,270.9,55.1,270.9,55.1 C273.9,60.5,283.2,55.86,281.2,50.2 C280.3,47.6,277.2,41.2,266.4,41.2 C244.2,41.2,237.3,63.7,236.3,78.6 C236.1,81,236.2,83.3,236.4,85.6 C233.3,89.3,229.68,92.6,226.9,92.6 C222.59,92.6,220.3,88.6,221.68,79.6 C222.9,71,223.7,63.8,224.3,59.66 C227.6,40.8,203.46,41.3,203.46,41.3S203.1,30.27,194.6,30.27 C189.3,30.27,185.2,33.9,185.2,40.66 C185.2,46.9,190.4,50.04,190.4,50.04 L190.4,50.04 C189.34,59.8,184.7,92.5,174.5,92.5 C169.9,92.5,169.6,87.6,170.0,84.1 C170.6,79.3,171.4,71.1,171.7,69 C172.6,62.2,161.4,60.7,160.2,68.4 C158.9,76.30,155.6,92.5,146.3,92.5 C140.7,92.5,137.8,85.5,138.2,77 C139.0,62.5,146.8,51.5,156.3,51.5 C159.6,51.5,161.3,55,161.3,55 C163.8,60.4,173.5,56.5,171.6,50.1 C170.8,47.34,167.6,41.1,156.8,41.1 C134.6,41.1,127.7,63.6,126.7,78.4 C126.50,80.7,126.6,82.9,126.80,85 C123.60,89.3,119.80,92.4,116.2,92.4 C112.9,92.4,110.4,90.7,111.00,83.2 C111.30,79.7,115.30,55.96,115.10,51.5 C114.60,44.3,111.4,41.1,103.30,41.1 C94.80,41.1,88.4,45.5,85.7,48.2 C85.7,48.2,89.7,18.1,90.50,12.34 C91.30,6.20,79.7,6.20,78.9,12.20 C78.6,14.84,75.50,38.7,72.6,60.7 C66.1,75.2,53,97.3,33.5,97.3 C-3.386,97.3,13.600,16.8,48.1,16.8 C56.2,16.8,52.6,29.7,47.2,37.6 C43.34,43.2,53.1,49.7,58.5,40.6 C73.2,16.4,60.6,7,48.8,7 C-2.5,7,-21.5,109.2,31.9,109.2 C49.5,109.2,61.2,99.3,68.8,88.7 C68,94.7,67.5,98.8,67.3,99.60 C66.4,105.9,78.3,105.4,78.8,100.10 C79.3,96.7,80.9,82.60,82.4,71.9 C83.3,65.7,90.8,54.46,99.4,54.46 C101.4,54.46,102.8,56.46,102.58,58.10 C102.28,60.10,98.58,86.9,98.88,90.9 C99.58,102.10,107.58,104.7,115.17,104.7 C121.17,104.7,125.7,101.8,130.07,97.4 C132.75,101.9,136.7,104.7,142.57,104.7 C155.38,104.7,159.88,95.5,159.88,95.5S161.38,104.7,172.47,104.7 C194.88,104.7,200.16,65.6,201.28,52.5 C202.6,52.6,210.47,53,211.78,57.5 C213.1,61.8,209.1,75.4,208.7,89.4 C208.5,96.80,211.28,104.7,223,104.7 C230.1,104.7,235.8,101.4,239.8,97.7 C242.5,102,246.6,104.7,252.1,104.7 C258.4,104.7,262.7,102.7,265.4,100.60 C265.2,101.80,265.6,103.00,264.9,104.2 C264.9,104.3,264.9,104.4,264.9,104.4 C264.9,104.2,235.34,125.5,235.34,145.7 C235.34,153.6,239.0,158.7,248.34,158.7 C266.9,158.7,272.6,133.88,275.3,113.3 C275.4,112.3,275.6,111.4,275.7,110.6 C278.6,108.3,281.3,106.3,283.9,104.1 C287.8,101.1,291.56,98.28,295.8,95.1 C296,95.3,296.2,95.8,296.4,96.1 C300.3,101.5,306.2,104.3,313.3,104.3 C326.7,104.3,339.2,94.1,348.1,84 C349.5,89,351.6,93.7,355,97.4 C359.3,102.10,365.1,104.5,371.7,104.5 C384.5,104.5,393.4,94.3,398,82.4 C401.5,84,405.4,85,409.5,85.2 C410.4,89.4,412.1,93.10,414.6,96.10 C417.7,99.9,423.6,104.4,433.9,104.4 C444.1,104.4,454.3,98.9,461.1,94.30 C461.4,94.80,461.8,95.30,462.1,95.7 C465.3,99.7,471.4,104.4,481.9,104.4 C500.56,104.4,510.7,89.2,511.1,88.50 C512.8,86.1,512.1,82.5,509.4,80.8" fill="#000000"/>
</svg>
