<?xml version="1.0" encoding="UTF-8" standalone="no"?>
<svg width="512px" height="105px" viewBox="0 0 512 105" version="1.1" xmlns="http://www.w3.org/2000/svg" xmlns:xlink="http://www.w3.org/1999/xlink" preserveAspectRatio="xMidYMid">
	<g>
		<path d="M66,87.3 C68.3,87.3,70.2,89.2,70.2,91.5 C70.2,93.8,68.3,95.7,66,95.7 C63.7,95.7,61.8,93.8,61.8,91.5 C61.7,89.2,63.6,87.3,66,87.3 M132.7,61.1 C130.398,61.1,128.5,59.2,128.5,56.9 C128.5,54.6,130.4,52.6996,132.7,52.6996 C135,52.6996,136.898,54.5994,136.898,56.9 C136.9,59.2,135,61.1,132.7,61.1 M132.7,43.7 C125.399,43.7,119.499,49.6,119.499,56.84 C119.499,58.2,119.699,59.6,120.199,61.1 L76.8,84.1 C74.3,80.6,70.3,78.399,66,78.399 C61,78.399,56.4,81.3,54.2,85.699 L15.23,65.199 C11,63.1,8,56.3,8.3,50.1 C8.5,46.9,9.61,44.4,11.3,43.4 C12.4,42.8,13.71,42.8,15,43.6 L60.9,67.7 C63.1,68.7,64.3,69.11,68.1,67.4 L138,31 C139,30.6,140.2,29.6,140.2,28.1 C140.2,26,138.1,25.23,138.1,25.23 L88.5,1.728 C109.3,11.73,94.8,5.036,88.5,1.728 C83,-1.1997,78.6,1.33,77.8,1.728 L7.3,36.8 C3.4,39.1,1,43.9,0.7,49.7 C0.199996,59,5,68.7,11.7,72.2 L53,93.5 C53.9,99.9,59.5,104.7,66,104.7 C73.2,104.7,79,98.9,79.1,91.8 L124.5,67.199 C126.8,68.999,129.7,69.999,132.6,69.999 C139.798,69.999,145.7,64.098,145.7,56.8984 C145.8,49.6,139.9,43.7,132.7,43.7" fill="#3681FC"/>
		<path d=" M232.5,78.8 C230,81.5,226.5,83.7,221.7,85.399 C217,87.1,211.798,87.899,206.1,87.899 C197.4,87.899,190.5,85.3,185.298,79.999 C180.1,74.699,177.298,67.298,176.997,57.8984 L176.997,52.198 C176.997,45.698,178.196,39.9986,180.497,35.198 C182.798,30.2983,186.097,26.598,190.398,23.9982 C194.7,21.398,199.7,20.0984,205.298,20.0984 C213.497,20.0984,219.997,21.9982,224.497,25.7983 C229.097,29.5984,231.696,35.198,232.497,42.698 H217.097 C216.597,38.998,215.398,36.3984,213.597,34.798 C211.795,33.198,209.196,32.3984,205.898,32.3984 C201.898,32.3984,198.798,34.099,196.597,37.4986 C194.398,40.8984,193.295,45.699,193.295,51.9986 V55.9986 C193.295,62.599,194.395,67.598,196.696,70.899 C198.997,74.199,202.497,75.899,207.395,75.899 C211.594,75.899,214.594,74.999,216.696,73.1 V62.6 H205.597 V51.6 H232.696 V78.8 Z M241.8,86.9 H257.2 V37.8 H241.798 V86.9 Z M240.9,25.1 C240.9,22.92,241.72,21.1,243.3,19.73 C244.9,18.34,246.9,17.6,249.4,17.6 C251.9,17.6,254,18.3,255.5,19.73 C257.1,21.1,257.9,22.92,257.9,25.1 C257.9,27.3,257.097,29.1,255.497,30.5 C253.898,31.9,251.898,32.6,249.398,32.6 C246.898,32.6,244.798,31.92,243.298,30.5 C241.7,29.1,240.9,27.3,240.9,25.1 L240.9,25.1 Z M284.5,25.6 V37.8 H292.6 V48.4 H284.5 V70.9 C284.5,72.7,284.8,74,285.5,74.81 C286.2,75.51,287.5,75.9,289.5,75.9 C291,75.9,292.3,75.81,293.3,75.61 V86.51 C290.5,87.42,287.7,87.81,284.7,87.81 C279.4,87.81,275.5,86.61,273,84.11 C270.5,81.61,269.2,77.81,269.2,72.81 V48.4 H262.9 V37.8 H269.2 V25.6 H284.5 Z M315.3,58.8 V74.6 H325.8 C328.7,74.6,330.93,73.899,332.43,72.6 C333.93,71.3,334.75,69.399,334.75,67 C334.75,61.5,332.6,58.7,326.56,58.7 H315.3 Z M315.3,48.4 H323.6 C327.1,48.4,329.6,47.6996,331.1,46.5 C332.6,45.3,333.3,43.4,333.3,41 C333.3,38.2,332.5,36.2,330.93,35 C329.3,33.8,326.75,33.2,323.1,33.2 H315.3 V48.4 Z M299.3,86.9 V20.8 H323.1 C331.6,20.8,338.1,22.42,342.5,25.5 C346.9,28.6,349.2,33.1,349.2,39.1 C349.2,42.5,348.4,45.4,346.8,47.96 C345.2,50.34,342.93,52.11,339.8,53.34 C343.3,54.2,345.93,55.96,347.8,58.46 C349.6,60.96,350.6,63.96,350.6,67.5 C350.6,74,348.5,78.8,344.43,82.1 C340.3,85.399,334.25,87,326.1,87.1 H299.3 Z M372.1,62.9 C372.1,67.4,372.8,70.8,374.25,72.9 C375.6,75,377.75,76.11,380.56,76.11 C386.6,76.11,388.75,71.9,388.93,63.51 V62.1 C388.93,53.2,386.1,48.81,380.43,48.81 C375.3,48.81,372.56,52.61,372.1,60.21 L372.1,62.9 Z M356.8,61.9 C356.8,57,357.8,52.5994,359.7,48.8 S364.4,42,367.9,40 C371.5,37.9,375.7,36.9,380.5,36.9 C387.9,36.9,393.7,39.1996,397.9,43.6996 C402.097,48.3,404.295,54.5,404.295,62.3 V62.8 C404.295,70.5,402.193,76.5,397.9,81 C393.597,85.5,387.9,87.7,380.597,87.7 C373.597,87.7,367.994,85.61,363.7,81.4 C359.5,77.2,357.2,71.5,356.8,64.4 L356.8,61.9 Z M424.4,62.9 C424.4,67.4,425.097,70.8,426.5,72.9 C427.9,75,430,76.11,432.8,76.11 C438.3,76.11,441,71.9,441.2,63.51 V62.1 C441.2,53.2,438.4,48.81,432.7,48.81 C427.597,48.81,424.8,52.61,424.4,60.21 L424.4,62.9 Z M409.1,61.9 C409.1,57,410.1,52.5994,412,48.8 C413.9,45,416.7,42,420.2,40 C423.8,37.9,428,36.9,432.8,36.9 C440.2,36.9,446,39.1996,450.2,43.6996 C454.4,48.3,456.597,54.5,456.597,62.3 V62.8 C456.597,70.5,454.494,76.5,450.2,81 C445.9,85.5,440.2,87.7,432.9,87.7 C425.9,87.7,420.295,85.61,416,81.4 C411.8,77.2,409.5,71.5,409.1,64.4 L409.1,61.9 Z M483.1,68.6 L478.8,72.899 V86.899 H463.5 V17.2 H478.8 V54.2 L480.3,52.2 L491.93,37.96 H510.3 L493,58 L511.4,86.9 H493.795 L483.1,68.6 Z"/>
	</g>
</svg>
