<?xml version="1.0" encoding="UTF-8" standalone="no"?>
<svg width="256px" height="274px" viewBox="0 0 256 274" version="1.1" xmlns="http://www.w3.org/2000/svg" xmlns:xlink="http://www.w3.org/1999/xlink" preserveAspectRatio="xMidYMid">
	<g>
		<path d="M188.9,179.3 C221.22,161.5,245.9,148,248.12,146.7 C254.8,143,261.8,133.7,248.12,126.1 C243.72,123.78,219.62,110.6,188.8,93.8  L146.3,136.7 C146.3,136.7,188.9,179.3,188.9,179.3 Z" fill="#FFE300"/>
		<path d="M146.3,136.7 L10.3,273.6 C13.505,274.07,17.206,273.3,21.406,271 C30.206,266.2,124.61,214.5,188.9,179.3 L146.3,136.7 L146.3,136.7 Z" fill="#FF4E54"/>
		<path d="M146.3,136.7 L188.8,93.8 C188.8,93.8,30.81,7.689,21.406,2.543 C17.804,0.543,13.806,-0.10586,10.2,0.6 L146.3,136.7 Z" fill="#00F085"/>
		<path d="M146.3,136.7 L10.2,0.6 C4.6,1.9,0,6.7,0,16.5 C0,32.4,0,244,0,257.3 C0,266.5,3.6,273,10.3,273.6 L146.3,136.7 Z" fill="#00E0FF"/>
	</g>
</svg>
