<?xml version="1.0" encoding="UTF-8" standalone="no"?>
<svg xmlns="http://www.w3.org/2000/svg" xmlns:xlink="http://www.w3.org/1999/xlink" width="512px" height="98px" preserveAspectRatio="xMidYMid" version="1.1" viewBox="0 0 512 98">
  <defs>
    <linearGradient id="lineargradient-1" x1="48.9581" x2="48.9581" y1="770.6998" y2="717.9837" gradientTransform="matrix(1 0 0 1 0 -669.6842)" gradientUnits="userSpaceOnUse">
      <stop offset="0" style="stop-color:#007A55"/>
      <stop offset="1" style="stop-color:#005037"/>
    </linearGradient>
  </defs>
  <g>
    <path fill="url(#lineargradient-1)" d="M88.5,40.6 C93.2,40.4,97.4,44,97.8,48.8 C99.5,71.5,78.6,97,49.3,97.8 C24.5,98.4,0.1,78.6,0.1,48.7 C0.1,44,4,40.1,8.7,40.1 C13.399,40.1,17.297,43.9,17.297,48.7 C17.297,68.4,33.094,81.1,48.9,80.7 C68.3,80.2,81,63.3,80.4,49.5 C80.1,44.8,83.8,40.8,88.5,40.6 Z"/>
    <path fill="#00A672" d="M67.1,49.4 C67.1,44.6,71,40.594,75.89,40.594 H88.69 C93.49,40.594,97.69,44.49,97.69,49.39S93.69,58.19,88.69,58.19 H76 C71.1,58.1,67.1,54.2,67.1,49.4 ZM40.2,49.4 C40.2,44.6,44.1,40.594,49,40.594S57.8,44.49,57.8,49.39S53.9,58.19,49,58.19S40.2,54.2,40.2,49.4 ZM57.5,8.4 C57.7,13.1,54.1,17.1,49.3,17.3 C28.996,18.2,16.594,34.1,17.196,49.3 C17.395,54,13.795,58,9.096,58.196 C4.396,58.4,0.19574,54.594,-3.552713678800501e-15,49.8 C-1,25.1,19.6,0.6,48.6,0.2 C53.3,0,57.3,3.6,57.5,8.4 Z"/>
    <path fill="#313131" d="M162.9,55 H179.3 C178.5,58.1,177.2,60.8,175.4,63.4 C173.7,65.8,171.4,67.8,168.6,69.2 C165.79,70.7,162.4,71.4,158.29,71.4 C153.89,71.4,149.79,70.4,146.29,68.3 C142.79,66.3,139.9,63.4,137.89,59.7 C135.89,56.0,134.79,51.6,134.79,46.8 C134.79,41.9,135.79,37.54,137.89,34.04 C139.9,30.43,142.79,27.66,146.39,25.54 C149.9,23.54,153.9,22.54,158.29,22.54 C162.89,22.54,166.9,23.54,170.2,25.43 C173.5,27.3,176.1,29.93,178,33.2L187.3,27.0 C184.4,22.3,180.5,18.6,175.5,16.0 C170.7,13.41,164.9,12.1,158.4,12.1 C153.4,12.1,148.6,13.0,144.3,14.7S136.2,18.7,133,21.9 C129.9,25.0,127.4,28.6,125.6,33.0 C123.89,37.2,123,42.0,123,47.1S123.9,57.0,125.6,61.3 C127.3,65.6,129.7,69.4,133,72.5 C136.2,75.6,140,78.1,144.3,79.9 C148.6,81.6,153.3,82.4,158.3,82.4 C163.6,82.4,168.5,81.4,172.6,79.5 C176.7,77.5,180.3,74.8,183.1,71.4 C185.9,68.0,188.0,64.1,189.4,59.7 C190.8,55.3,191.4,50.54,191.3,45.66 H164.4L162.9,55 ZM222.5,47.6L227.6,38.7 C226.6,37.6,225.4,36.7,224,36.2 C222.6,35.7,221.1,35.46,219.5,35.46 C217.7,35.46,215.8,36.0,214.1,37.1 C212.29,38.2,210.79,39.7,209.5,41.7V36.3 H199.2 V80.6 H209.5 V55.7 C209.5,52.5,210.1,50,211.2,47.96 C212.29,46.0,214.2,45.0,216.7,45.0 C218,45.0,219,45.2,219.79,45.7 C220.6,46.1,221.5,46.7,222.5,47.6 ZM232.7,36.4 V80.69 H242.89 V36.4 H232.7 ZM231.3,20.1 C231.3,21.90,231.9,23.40,233.2,24.6S236.0,26.40,237.8,26.40 C239.6,26.40,241.2,25.8,242.5,24.6 C243.8,23.40,244.4,21.90,244.4,20.1S243.8,16.8,242.5,15.60 C241.2,14.40,239.7,13.8,237.8,13.8 C236,13.8,234.5,14.4,233.2,15.60 C231.9,16.7,231.3,18.2,231.3,20.1 ZM260.3,58.5 C260.3,54.1,261.6,50.6,264.2,48.2 C266.8,45.7,269.9,44.5,273.5,44.5 C275.5,44.5,277.44,45,279.4,46.1S282.9,48.84,284.2,50.9 C285.5,52.9,286.0,55.5,286.0,58.6S285.44,64.2,284.2,66.4 C282.9,68.4,281.3,70,279.4,71.1S275.5,72.7,273.5,72.7 C269.94,72.7,266.94,71.5,264.2,69.1 C261.7,66.4,260.3,63,260.3,58.5 ZM249.6,58.5 C249.6,63.3,250.6,67.6,252.6,71S257.2,77,260.5,78.9 C263.7,80.7,267.3,81.6,271.2,81.6 C274.4,81.6,277.2,80.9,279.9,79.5 C282.5,78.0,284.5,76.0,286.25,73.4 V80.8 H296.75 V8.86 H286.25 V43.9 C284.5,41.36,282.44,39.36,279.9,37.9 C277.4,36.4,274.5,35.74,271.2,35.74 C267.4,35.74,263.8,36.6,260.5,38.5 C257.3,40.3,254.6,42.9,252.6,46.4 C250.6,49.5,249.6,53.6,249.6,58.5 ZM308.5,64.7L302.5,70.5 C304.5,73.8,307.2,76.5,310.7,78.7 C314.0,80.9,318.0,82,322.3,82 C326.9,82,330.8,80.9,333.8,78.7 C336.8,76.4,338.3,72.9,338.3,68.2 C338.3,65.6,337.7,63.46,336.6,61.84 C335.5,60.1,334,58.84,332.1,57.7 C330.3,56.6,328.3,55.6,326.2,54.7 C324.5,54,322.9,53.46,321.1,52.84 C319.4,52.2,318.1,51.6,317,50.84 C315.9,50.0,315.4,49.0,315.4,47.84 C315.4,46.5,315.9,45.5,316.9,44.96 C318,44.34,319.4,43.96,321.2,43.96S324.8,44.46,326.7,45.46 C328.7,46.46,330.4,47.7,331.9,49.34L337.5,43.46 C335.9,41.2,333.5,39.34,330.4,37.84 C327.4,36.34,324.0,35.5,320.5,35.5 C317.9,35.5,315.4,36.0,313.1,36.96 C310.8,37.96,309,39.2,307.6,41.0 C306.2,42.84,305.5,45.0,305.5,47.5 C305.5,50.2,306.1,52.5,307.3,54.2 C308.6,55.9,310.2,57.2,312.1,58.2S316,60.1,318,61.0 C320.5,62.0,322.8,63.0,324.7,64.1 C326.7,65.2,327.7,66.7,327.7,68.6 C327.7,70.1,327.2,71.2,326.0,71.9 C325.0,72.6,323.7,73,321.75,73S317.63,72.2,315.25,70.7 C312.8,69.2,310.6,67.2,308.5,64.7 ZM353.2,58.5 C353.2,54.4,354.4,50.9,356.9,48.4 C359.4,45.8,362.5,44.6,366.25,44.6 C370.0,44.6,373.25,45.9,375.63,48.4 C378.13,51,379.3,54.3,379.3,58.5S378.13,66,375.63,68.6 C373.13,71.19,370.0,72.39,366.25,72.39 C362.5,72.39,359.44,71.1,356.9,68.6 C354.4,66,353.2,62.6,353.2,58.5 ZM342.5,58.5 C342.5,63,343.5,67.1,345.6,70.6 C347.7,74,350.5,76.8,354.2,78.8 C357.8,80.7,362.6,81.7,366.4,81.7 C370.9,81.7,375.1,80.7,378.6,78.8 C382.2,76.8,385,74.1,387.1,70.6 C389.2,67.19,390.2,63.094,390.2,58.49S389.2,49.89,387.1,46.39 C385.1,42.99,382.3,40.29,378.6,38.29 C375,36.29,370.9,35.29,366.4,35.29S357.8,36.29,354.2,38.29 C350.6,40.19,347.8,42.89,345.6,46.39 C343.6,49.9,342.5,53.9,342.5,58.5 ZM459.5,52.5 C459.5,46.9,458.4,42.6,456.1,39.8 C453.8,36.9,450.3,35.4,445.4,35.4 C442.5,35.4,439.8,36.1,437.3,37.5 C434.9,38.8,432.9,40.7,431.5,43.1 C429.5,37.9,425.3,35.2,418.8,35.2 C415.9,35.2,413.5,35.96,411.3,37.2 C409.3,38.5,407.6,40.34,406.4,42.6 V36.2 H396.2 V80.5 H406.4 V53.7 C406.4,50.84,407.1,48.46,408.6,46.5 C410.1,44.6,412.3,43.7,415.1,43.7 C417.8,43.7,419.6,44.6,420.7,46.34 C421.8,48.0,422.3,50.46,422.3,53.7 V80.7 H432.8 V53.7 C432.8,50.84,433.5,48.46,435.6,46.5 C436.5,44.6,438.7,43.7,441.5,43.7 C444.2,43.7,446.6,44.6,447.1,46.34 C448.2,48.0,448.8,50.46,448.8,53.7 V80.7 H459.3L459.5,52.5L459.5,52.5 ZM476.5,60.9 H511.8 C511.9,60.4,511.9,59.9,511.9,59.4 C512,58.9,512,58.4,512,58.1 C512,51,509.1,45.6,505,41.5 C501.1,37.5,495.7,35.5,488.9,35.5 C482.5,35.5,477.4,37.2,473.4,40.6 C469.5,44,467.0,48.5,466.0,53.96 C465.94,54.7,465.9,55.46,465.75,56.2 C465.63,57,465.63,57.84,465.63,58.6 C465.63,63,466.5,67.1,468.44,70.6 C470.25,74,472.94,76.8,476.3,78.8 C479.7,80.8,483.7,81.8,488.2,81.8 C493.7,81.8,498.3,80.7,501.8,78.5 C505.44,76.3,509.3,73.5,511.44,69.8L501.44,66.2 C500.13,68.4,498.44,70.1,496.3,71.4 C494.3,72.6,491.8,73.2,488.7,73.2 C485.3,73.2,482.5,72.2,480.2,70.2 C478.2,68,476.9,65,476.5,60.9 ZM476.7,53.7 C477.0,50.46,478.5,47.96,480.7,46 C482.9,44.1,485.5,43.2,488.8,43.2 C492.1,43.2,494.6,44.1,496.5,46 C498.3,47.9,499.4,50.4,499.7,53.7 H476.7 Z"/>
  </g>
</svg>
