<?xml version="1.0" encoding="UTF-8" standalone="no"?>
<svg width="512px" height="127px" viewBox="0 0 512 127" version="1.1" xmlns="http://www.w3.org/2000/svg" xmlns:xlink="http://www.w3.org/1999/xlink" preserveAspectRatio="xMidYMid">
	<g>
		<path d="M111,0.2 H16 C7.2,0.2,0.1,7.3,0.1,16 V111 C0.1,119.7,7.199,126.8,15.9,126.8 H110.9 C119.61,126.8,126.7,119.7,126.7,111 V16 C126.8,7.3,119.7,0.2,111,0.2 Z M80.3,23.4 C80.3,21.098,82.2,19.2,84.5,19.2 S88.7,21.098,88.7,23.4 V79.8 C88.7,82.1,86.8,84,84.5,84 S80.3,82.1,80.3,79.8 V23.4 Z M59.2,21.3 C59.2,19,61.1,17.1,63.406,17.1 C65.7,17.1,67.61,19,67.61,21.3 V82.5 C67.61,84.8,65.7,86.7,63.406,86.7 C61.11,86.7,59.2,84.8,59.2,82.5 C59.2,82.5,59.2,21.3,59.2,21.3 Z M38.1,23.4 C38.1,21.098,40,19.2,42.304,19.2 S46.51,21.098,46.51,23.4 V79.8 C46.51,82.1,44.61,84,42.304,84 S38.1,82.1,38.1,79.8 V23.4 Z M17,31.9 C17,29.598,18.9,27.7,21.2,27.7 S25.4,29.598,25.4,31.9 V69.9 C25.4,72.2,23.5,74.11,21.2,74.11 S17,72.2,17,69.9 V31.9 Z M108.4,96.3 C107.81,96.89,92.11,110,63.406,110 S19.11,96.9,18.406,96.3 C16.605,94.8,16.406,92.1,17.906,90.3 S22.105,88.3,23.804,89.8 C24,90,38,101.5,63.3,101.5 C88.9,101.5,102.69,90,102.8,89.8 C104.6,88.3,107.2,88.5,108.8,90.3 S110.2,94.8,108.4,96.3 Z M109.9,69.9 C109.9,72.2,108,74.11,105.7,74.11 S101.5,72.2,101.5,69.9 V31.906 C101.5,29.605,103.4,27.706,105.7,27.706 S109.9,29.605,109.9,31.906 C109.9,31.9,109.9,69.9,109.9,69.9 Z" fill='#286EFA'/>
		<path d=" M177.1,81.9 C177.1,84,175.5,85.81,173.2,85.81 C171,85.81,169.28,84.11,169.28,81.9 V45.1 C169.28,43,170.88,41.2,173.2,41.2 C175.38,41.2,177.1,42.906,177.1,45.1 V81.9 Z M227.3,45.1 V78.7 C227.3,83.2,224.9,85.8,221,85.8 H220.7 C217,85.8,215.28,83.7,213.7,80.6 L199.16,49.69 L199.16,81.89 C199.16,83.99,197.57,85.8,195.25,85.8 C193.07,85.8,191.35,84.1,191.35,81.89 V48.2 C191.35,44,193.75,41.1,198.04,41.1 H198.35 C202.25,41.1,203.85,43.2,205.44,46.304 L219.44,76.11 L219.44,45.11 C219.44,43.01,221.04,41.21,223.35,41.21 C225.7,41.3,227.3,43,227.3,45.1 Z M258.4,81.8 C258.4,83.89,256.75,85.7,254.47,85.7 C252.28,85.7,250.57,84,250.57,81.8 V48.6 H241 C239,48.6,237.4,47.1,237.4,44.9 C237.4,42.8,239,41.3,241,41.3 H268 C270,41.3,271.6,42.8,271.6,45 C271.6,47.1,270,48.6,268,48.6 H258.4 V81.8 Z M281.8,80.6 V46.1 C281.8,42.9,283.6,41.1,286.93,41.2 H309.3 C311.3,41.2,312.93,42.804,312.93,44.906 S311.3,48.51,309.3,48.51 H289.5 V59.2 H307 C308.9,59.2,310.5,60.6,310.5,62.7 S308.9,66.2,307,66.2 H289.5 V78.5 H309.3 C311.3,78.5,312.93,80.1,312.93,82.2 S311.3,85.8,309.3,85.8 H286.7 C283.5,85.7,281.7,83.9,281.8,80.6 Z M357,80.6 C358.1,82.39,357.4,84.69,355.2,85.8 C353.07,86.89,350.8,86,349.7,84.2 L341.07,68.2 H332.9 L333,81.8 C333,83.89,331.4,85.7,329.1,85.7 C326.93,85.7,325.25,84,325.25,81.8 V46.1 C325.25,42.9,327.06,41.1,330.37,41.2 H345 C355.1,41.2,359.4,47.804,359.4,54.5 C359.4,60.9,355.7,65.6,349.25,66.9 L357,80.6 Z M332.9,61.3 H345.2 C349.4,61.3,351.5,58.594,351.5,54.8 S349.2,48.4,345.1,48.4 H332.93 L332.9,61.3 L332.9,61.3 Z M375.4,82.4 C370.7,78.2,368.57,71.7,368.57,63.51 C368.57,55.2,370.7,48.81,375.25,44.7 C378.13,42.2,381.94,40.5,387.57,40.5 C392.44,40.5,396.25,41.6,399.2,44 C401.7,46,403.5,48.8,404.5,52.7 C405.1,54.804,403.6,56.804,401.3,57.2 C399.1,57.6,397.3,56.1,396.6,54.1 S394.93,50.7,393.75,49.7 C392.1,48.304,390.1,47.6,387.56,47.6 C384.75,47.6,382.37,48.4,380.56,50.2 C377.93,52.804,376.87,57.5,376.87,63.406 C376.87,69.2,377.91,73.9,380.61,76.5 C382.41,78.3,384.87,79.1,387.56,79.1 C390.43,79.1,392.56,78.39,394.37,76.69 C395.25,75.78,396.06,74.69,396.61,73.39 C397.41,71.49,399.11,69.99,401.37,70.49 S404.87,73.08,404.25,75.19 C403.1,78.6,401.25,81.39,398.56,83.19 C395.61,85.28,392.11,86.28,387.61,86.28 C381.8,86.4,378.1,84.7,375.4,82.4 Z M413.3,63.5 C413.3,49.6,419,40.5,432.5,40.5 C445.9,40.5,451.6,49.3,451.6,63.5 C451.6,77.9,445.8,86.5,432.5,86.5 C418.9,86.5,413.3,77.8,413.3,63.5 Z M443.7,63.5 C443.7,52.9,439.8,47.8,432.5,47.8 C425.2,47.8,421.4,53,421.4,63.5 C421.4,74.1,425.07,79.2,432.5,79.2 C439.7,79.2,443.7,74,443.7,63.5 Z M511.9,81.8 C511.9,83.89,510.25,85.7,508,85.7 C505.8,85.7,504.1,84,504.3,81.8 V49 L493.43,81.7 C492.56,84.61,490.56,85.7,488.1,85.7 C485.5,85.7,483.75,84.5,482.75,81.7 L472.2,49.2 V81.9 C472.2,84,470.57,85.81,468.3,85.81 C466.1,85.81,464.43,84.11,464.43,81.9 V48.6 C464.43,44,466.93,41.304,471.25,41.304 C475.37,41.304,477.6,43.51,478.93,47.51 L488.1,76.1 L497.3,47.5 C498.6,43.5,500.8,41.3,504.93,41.3C509.3,41.3,511.75,43.9,511.9,48.594 L511.9,81.8 Z"/>
	</g>
</svg>
