<?xml version="1.0" encoding="UTF-8" standalone="no"?>
<svg width="256px" height="264px" viewBox="0 0 256 264" version="1.1" xmlns="http://www.w3.org/2000/svg" xmlns:xlink="http://www.w3.org/1999/xlink" preserveAspectRatio="xMidYMid">
	<path d="M199.8,29.1 L150.3,57.5 C149.12,58.2,148.3,59.5,148.3,61 V115 L107,138.8 V32.81 C107,31.413,106.2,30.01,105,29.31 L55.6,1 C54.4,0.30004,52.804,0.30004,51.6,1 L2.2,29.6 C1,30.3,0.20018,31.6,0.20018,33.1 V202.9 C0.20018,204.3,1,205.72,2.2,206.4 L101.2,263.1 C102.4,263.8,103.9,263.8,105.2,263.1 L204.3,206.3 C205.5,205.62,206.3,204.3,206.3,202.8 V148.62 L253.8,121.33 C255,120.62,255.8,119.33,255.8,117.83 V61.3 C255.8,59.9,255,58.5,253.8,57.8 L203.8,28.6 C202.5,28.4,201,28.4,199.8,29.1 Z M53.6,9.4 L94.9,33.2 L53.6,56.9 L12.3,33.1 L53.6,9.4 Z M98.9,40.3 V143.88 C98.9,143.88,57.7,167.57,57.7,167.57 V64 L98.9,40.3 Z M99,252.7 L8.2,200.4 V40.3 L49.5,64 V174.9 C49.5,176.3,50.3,177.72,51.5,178.4 L99,205.2 V252.7 Z M103.1,198.1 C103.1,198.1,61.99,174.78,61.99,174.7 L152.7,122.49 L193.88,146.2 L103.1,198.1 Z M198,200.4 L107.2,252.7 V205.2 L198,153.28 V200.4 Z M197.9,139.1 L156.7,115.3 V68.3 L198,92.1 C198,92.1,198,139.1,197.9,139.1 Z M202.2,85 L160.88,61.2 L202.07,37.406 C202.07,37.406,243.38,61.11,243.38,61.2 L202.2,85 Z M247.6,115.3 L206.38,139.1 V92 L247.57,68.3 V115.3Z" fill="#FF2D20"/>
</svg>
