<?xml version="1.0" encoding="UTF-8" standalone="no"?>
<svg width="256px" height="192px" viewBox="0 0 256 192" version="1.1" xmlns="http://www.w3.org/2000/svg" xmlns:xlink="http://www.w3.org/1999/xlink" preserveAspectRatio="xMidYMid">
	<g>
		<path d="M145.4,54.2 L137.22,68.5 L108.22,17.96 L16.7,177.3 H75 C74,180.3,74.3,183.6,75.9,186.22 C77.81,189.43,81.4,191.5,85.31,191.5 H10.9 C7.15,191.5,3.5,189.43,1.5,186.22 C-0.3,182.8,-0.3,178.62,1.5,175.3 L98.8,5.8 C99.7,4.1,101.1,2.8,102.8,1.78 S106.3,0.3,108.2,0.3 C112.11,0.3,115.7,2.5,117.61,5.81 L145.4,54.2 Z" fill="#00C58E"
			/>
		<path d="M254.5,186.22 C252.6,189.4,249,191.5,245.1,191.5 H205.4 C209.2,191.5,212.9,189.4,214.8,186.22 C216.28,183.4,216.6,180.2,215.8,177.3 H239.2 L165.2,48.28 L153.6,68.49 L145.4,54.19 L155.8,36 C156.72,34.3,158.12,33,159.8,32 C161.5,31.1,163.3,30.6,165.22,30.6 C169.12,30.6,172.72,32.7,174.62,36 L254.43,175.3 C256.5,178.6,256.5,182.8,254.5,186.22 Z" fill="#108775"/>
		<path d="M215.8,177.3 C215.62,176.62,215.3,175.9,214.9,175.3 L153.6,68.5 L145.4,54.2 L137.22,68.5 L75.9,175.3 C75.61,176,75.2,176.62,75,177.3 C74,180.3,74.3,183.6,75.9,186.22 C77.81,189.43,81.4,191.5,85.31,191.5 H205.4 C209.22,191.5,212.9,189.4,214.8,186.22 C216.28,183.4,216.6,180.2,215.8,177.3 Z M91.2,177.3 L145.4,82.81 L199.62,177.3 H91.2 Z" fill="#2F495E"/>
	</g>
</svg>
 