<?xml version="1.0" encoding="UTF-8" standalone="no"?>
<svg width="512px" height="105px" viewBox="0 0 512 105" version="1.1" xmlns="http://www.w3.org/2000/svg" xmlns:xlink="http://www.w3.org/1999/xlink" preserveAspectRatio="xMidYMid">
	<path d="M0.4,41 C0.10003,40.5,0,40,0.2,39.5 C3,28.6,9.1,18.9,17.8,11.7 C31.5,0.4,50.2,-2.9,67.1,3 C67.6,3.2,68,3.6,68.19,4 C68.39,4.5,68.39,5,68.19,5.5 L65.69,12.2 C65.39,13.2,64.28,13.7,63.29,13.3 C50.094,8.7,35.39,11.3,24.587,20.297 C17.8,26,13.1,33.6,10.9,42.1 C10.701,43,9.9,43.6,9,43.6 H8.6 L1.63,41.9 C1.2,41.8,0.7,41.5,0.4,41 M100.9,57.7 C100.61,57.304,100.11,57,99.61,57 L92.51,56.3 C91.51,56.196,90.51,56.9,90.42,58 C89.12,67.6,84.51,76.5,77.42,83 C66.22,93.4,50.02,96.5,35.72,91 C34.72,90.6,33.616,91.1,33.22,92.1 C33.22,92.1,33.22,92.1,33.22,92.1 L30.416,98.8 C30.217,99.3,30.217,99.8,30.416,100.3 C30.616,100.8,31.018,101.2,31.518,101.39 C37.42,103.69,43.72,104.89,50.12,104.89 C63.02,104.89,75.33,99.99,84.83,91.3 C93.92,82.89,99.73,71.5,101.33,59.196 C101.3,58.7,101.1,58.2,100.9,57.7 M61.8,67.5 V60.3 C61.8,59.196,60.9,58.3,59.9,58.3 C59.9,58.3,59.9,58.3,59.9,58.3 H1.9 C0.7998,58.3,-0.1,59.196,0,60.3 C0,60.3,0,60.3,0,60.3 V67.5 C0,68.6,0.9,69.5,1.9,69.5 C1.9,69.5,1.9,69.5,1.9,69.5 H59.8 C60.9,69.5,61.8,68.6,61.8,67.5 C61.8,67.5,61.8,67.5,61.8,67.5 M39.5,34 V41.2 C39.5,42.304,40.4,43.2,41.4,43.2 H99.3 C100.39,43.2,101.3,42.304,101.2,41.2 C101.2,41.2,101.2,41.2,101.2,41.2 V34 C101.2,32.9,100.3,32.1,99.3,32.1 H41.4 C40.4,32.1,39.5,32.9,39.5,34 M81.8,9.9 C78.5,9.8,75.8,12.5,75.8,15.7S78.39,21.7,81.6,21.7 C84.89,21.8,87.6,19.098,87.6,15.899 C87.6,15.899,87.6,15.799,87.6,15.799 C87.7,12.6,85.1,10,81.8,9.9 M17.4,81.7 C14.098,81.61,11.399,84.3,11.399,87.5 C11.299,90.8,13.998,93.5,17.2,93.5 C20.5,93.6,23.2,90.9,23.2,87.7 C23.2,87.7,23.2,87.61,23.2,87.61 C23.2,84.4,20.6,81.7,17.4,81.7 M217.6,47.4 C217,40.9,212.4,36.9,205.6,36.9 C199.5,36.8,194.4,41.3,193.7,47.4 H217.6 M205.4,26.7 C220,26.7,229.1,36.8,229.1,52.9 C229.1,53.696,229.1,54.6,229,55.4 C228.9,56.196,228.3,56.8,227.5,56.8 H193.3 C193.5,64,199.5,69.7,206.72,69.6 C212.3,70,217.3,66.39,218.9,61.094 C219.22,60.3,220.1,59.89,220.9,60.196 L227.72,62.594 C228.12,62.696,228.4,62.99,228.62,63.39 C228.8,63.79,228.8,64.19,228.62,64.6 C225.43,74,216.53,80.19,206.62,79.89 C200.12,79.99,193.8,77.39,189.22,72.89 C184.22,67.6,181.53,60.49,181.8,53.19 C181.8,36.6,193.8,26.7,205.4,26.7 M273.7,52.1 C273.7,43.3,268.57,37.406,260.9,37.406 C252.97,37.406,247.88,43.01,247.88,52.11S252.88,66.81,260.9,66.81 C268.5,66.8,273.7,60.9,273.7,52.1 M283,28.2 C283.9,28.3,284.5,28.9,284.6,29.8 V74.5 C284.93,80.8,282.93,87,279.1,92 C274.8,97.3,268.25,100,259.5,100 C247.5,100,238,92.4,236.4,81.5 C236.3,80.7,236.8,79.9,237.6,79.7 L245.5,77.9 C245.5,77.9,245.6,77.9,245.6,77.9 C246.5,77.81,247.28,78.4,247.4,79.2 C248.1,85.3,253.4,89.9,259.5,89.7 C268.9,89.7,273.3,84.9,273.3,74.8 V70.89 C269.8,74.8,264.8,76.99,259.5,76.8 C246.1,76.8,236.4,66.39,236.4,52.094 C236.3,45.696,238.5,39.39,242.8,34.594 C247.12,29.895,253.22,27.294,259.5,27.395 C265.6,27.395,270.4,29.294,273.4,32.89 V29.89 C273.4,28.993,274.07,28.39,275,28.29 H283 M350.1,26.7 C343.75,26.4,337.6,29.5,334.1,34.9 C331.25,29.7,325.6,26.5,319.6,26.7 C314.43,26.598,309.5,28.8,306,32.6 V29.703 C306,28.804,305.3,28.203,304.4,28.1 H296.7 C295.8,28.203,295.2,28.8,295.07,29.703 V77.4 C295.07,78.31,295.75,78.9,296.7,79 H304.8 C305.7,78.9,306.3,78.3,306.43,77.4 V48.5 C306.43,41.6,310.56,37,316.75,37 C324.87,37,326.06,43.4,326.06,47.2 V77.31 C326.06,78.22,326.75,78.81,327.61,78.9 H335.87 C336.75,78.81,337.37,78.2,337.41,77.31 V48.31 C337.41,41.61,341.61,36.91,347.51,36.91 C355.614,36.91,356.81,43.31,356.81,47.11 V77.22 C356.81,78.12,357.51,78.72,358.415,78.81 H366.5 C367.415,78.72,368.17,78.11,368.12,77.22 V46.3 C367.6,32.8,358.8,26.7,350.1,26.7 M411.1,47.4 C410.5,40.9,405.93,36.9,399.1,36.9 C393,36.8,387.93,41.3,387.25,47.4 H411.1 Z M398.9,26.7 C413.5,26.7,422.57,36.8,422.57,52.9 C422.57,53.696,422.57,54.6,422.44,55.4 C422.3,56.196,421.75,56.8,420.94,56.8 H386.75 C386.94,64,392.9,69.7,400.07,69.6 C405.7,69.89,410.7,66.39,412.25,61.094 C412.57,60.3,413.44,59.89,414.25,60.196 L421.07,62.594 C421.44,62.696,421.75,62.99,421.94,63.39 C422.13,63.79,422.13,64.19,422.07,64.6 C418.9,74,409.94,80.19,400.07,79.89 C393.57,79.99,387.4,77.39,382.75,72.89 C377.75,67.6,375.07,60.49,375.4,53.19 C375.3,36.6,387.3,26.7,398.9,26.7 M456.8,26.7 C451.43,26.598,446.3,28.9,442.93,33.1 V29.703 C442.93,28.804,442.25,28.203,441.3,28.1 H433.3 C432.43,28.203,431.8,28.8,431.7,29.703 V77.4 C431.7,78.31,432.4,78.9,433.3,79 H441.43 C442.3,78.9,442.93,78.3,443.06,77.4 V49.8 C442.93,46.594,443.87,43.5,445.61,40.9 C447.41,38.6,450.37,37.196,453.21,37.3 C459.91,37.3,463.51,41.094,463.51,48.696 V77.5 C463.51,78.4,464.21,79,465.114,79.1 H473.31 C474.21,79,474.81,78.39,474.915,77.5 V47 C475.114,41.8,473.517,36.7,470.415,32.6 C467.1,28.7,462,26.5,456.8,26.7 M510.4,38.8 C511.25,38.8,512,38.094,512,37.196 C512,37.196,512,37.196,512,37.196 V29.895 C512,28.996,511.3,28.294,510.4,28.196 H501.57 V14.4 C501.57,13.5,500.9,12.8,499.94,12.701 H492.63 C491.75,12.8,491.0,13.502,491.0,14.4 V21.7 C491.0,27.4,486.9,28.297,484.5,28.297 H482.5 C481.63,28.4,480.9,29.098,480.9,29.996 V37.4 C480.9,38.3,481.6,38.9,482.5,39 H490.13 V64.9 C490.13,74.11,495.63,79.81,504.5,79.81 C506.63,79.81,508.7,79.61,510.7,79.01 C511.4,78.81,511.8,78.22,511.8,77.51 V70.61 C511.8,70.11,511.63,69.7,511.3,69.4 C510.94,69.11,510.5,69,510.0,69 C509.13,69.1,508.13,69.2,507.2,69.2 C503.0,69.2,501.4,67.5,501.4,63.5 V38.8 H510.4 Z M175.7,64.2 C175.7,56.6,170,51.1,159.88,49.1 L150.88,47.4 C145.97,46.5,144.97,43.9,144.97,41.9 C144.97,38.9,148.16,35.8,153.57,35.8 C161.25,35.8,163.66,40.196,164.38,42.9 C164.47,43.196,164.7,43.5,164.97,43.6 C165.38,43.7,165.78,43.7,166.07,43.6 L174.25,40.9 C174.85,40.8,175.16,40.196,175.07,39.6 C175.07,39.6,175.07,39.6,175.07,39.6 C174.07,36.4,172.07,33.5,169.38,31.402 C165.47,28.3,160.2,26.703,153.57,26.703 C142.57,26.703,133.25,34,133.25,42.7 C133.25,49.804,138.75,55.304,147.57,56.906 L156.97,58.7 C161.28,59.6,163.66,61.7,163.66,64.61 C163.66,67.51,160.85,70.7,154.75,70.7 C148.16,70.7,143.66,67.7,142.57,62.6 C142.47,62.304,142.25,62,141.97,61.804 C141.78,61.7,141.57,61.6,141.28,61.6 C141.1,61.6,140.97,61.6,140.78,61.6 L132.38,64.2 C131.78,64.3,131.47,64.9,131.57,65.4 C132.66,70.61,138.88,79.5,154.57,79.5 C168.07,79.5,175.38,71.4,175.38,63.8" fill="#53BD94"/>
</svg>
