<?xml version="1.0" encoding="UTF-8" standalone="no"?>
<svg width="512px" height="127px" viewBox="0 0 512 127" version="1.1" xmlns="http://www.w3.org/2000/svg" xmlns:xlink="http://www.w3.org/1999/xlink" preserveAspectRatio="xMidYMid">
	<g>
		<path d="M134.5,45.2 H186.3 V54.906 H166 V109.4 H154.8 V54.8 H134.5 L134.5,45.2 L134.5,45.2 Z M184.1,62.9 H193.7 V71.9 H193.88 C194.2,70.61,194.78,69.4,195.7,68.2 C196.6,67,197.6,65.9,198.78,64.9 C199.97,63.906,201.38,63.11,202.88,62.51 C204.38,61.906,205.88,61.61,207.47,61.61 C208.66,61.61,209.47,61.61,209.97,61.71 C210.47,61.71,210.88,61.81,211.38,61.91 V71.81 C210.7,71.72,209.97,71.61,209.2,71.51 C208.38,71.42,207.7,71.42,207,71.42 C205.3,71.42,203.7,71.83,202.1,72.42 C200.6,73.12,199.28,74.12,198.1,75.42 C197,76.83,196.1,78.42,195.4,80.42 S194.4,84.72,194.4,87.22 V109.31 H184.1 L184.1,62.9 L184.1,62.9 Z M258.3,109.3 H248.3 V102.8 H248 C246.7,105.2,244.9,107,242.4,108.39 C239.9,109.8,237.4,110.49,234.8,110.49 C228.72,110.49,224.3,108.99,221.62,105.99 C218.93,102.99,217.53,98.39,217.53,92.28 V62.9 H227.72 V91.4 C227.72,95.5,228.53,98.4,230.03,100.11 C231.53,101.81,233.84,102.61,236.62,102.61 C238.8,102.61,240.53,102.31,242.03,101.61 S244.62,100.11,245.53,98.9 C246.43,97.81,247.03,96.5,247.43,94.9 C247.84,93.4,248.03,91.7,248.03,89.9 V62.906 H258.25 V109.3 Z M275.7,94.4 C276,97.4,277.07,99.5,279.07,100.7 C281.07,101.9,283.4,102.5,286.2,102.5 C287.07,102.5,288.2,102.4,289.5,102.3 C290.7,102.2,291.9,101.8,292.9,101.39 C294,100.99,294.75,100.39,295.57,99.49 C296.25,98.69,296.57,97.58,296.44,96.28 C296.44,94.99,295.94,93.88,295.07,93.08 C294.2,92.17,293.07,91.58,291.7,91.08 C290.3,90.58,288.7,90.08,286.9,89.78 C285.07,89.38,283.25,88.99,281.4,88.58 C279.5,88.17,277.57,87.58,275.9,87.08 C274.07,86.49,272.57,85.67,271.2,84.67 C269.8,83.67,268.7,82.38,267.9,80.77 C267,79.17,266.57,77.27,266.57,74.86 C266.57,72.36,267.2,70.27,268.44,68.57 C269.63,66.86,271.25,65.47,273.13,64.47 C275.0,63.47,277.13,62.674,279.44,62.27 C281.75,61.87,283.94,61.67,286.07,61.67 C288.44,61.67,290.75,61.964,292.94,62.464 C295.13,62.964,297.13,63.76,298.8,64.97 C300.63,66.07,302.0,67.57,303.2,69.38 S305.1,73.38,305.4,75.97 H294.7 C294.2,73.57,293.1,71.88,291.4,71.07 C289.6,70.16,287.6,69.77,285.36,69.77 C284.6,69.77,283.74,69.77,282.74,69.97 C281.74,70.07,280.86,70.38,279.83,70.67 C279.05,70.97,278.3,71.47,277.74,72.08 C277.1,72.67,276.86,73.49,276.86,74.58 C276.86,75.88,277.36,76.88,278.1,77.58 C279.05,78.38,280.1,78.99,281.55,79.49 C282.83,79.99,284.55,80.49,286.36,80.78 C288.1,81.19,290.05,81.58,291.9,81.99 C293.86,82.39,295.6,82.99,297.4,83.49 C299.2,84.08,300.86,84.89,302.2,85.89 S304.7,88.19,305.6,89.8 C306.55,91.3,306.9,93.3,306.9,95.6 C306.9,98.39,306.36,100.69,305.0,102.6 C303.7,104.5,302.13,106.1,300.13,107.3 C298.13,108.5,295.94,109.39,293.44,109.89 C291.07,110.39,288.57,110.69,286.13,110.69 C283.25,110.69,280.5,110.39,278.0,109.69 C275.5,108.99,273.3,107.99,271.5,106.69 C269.7,105.28,268.2,103.69,267.2,101.69 C266.2,99.69,265.6,97.28,265.5,94.4 L275.7,94.4 L275.7,94.4 Z M309.4,62.9 H317.07 V48.9 H327.25 V62.9 H336.44 V70.6 H327.25 V95.39 C327.25,96.49,327.25,97.39,327.4,98.19 C327.5,98.99,327.7,99.6,328,100.19 C328.3,100.69,328.8,101.19,329.5,101.39 S331,101.8,332.2,101.8 C332.9,101.8,333.57,101.8,334.4,101.8 C335.07,101.8,335.75,101.7,336.57,101.5 V109.4 C335.44,109.5,334.25,109.61,333.25,109.81 C332.13,109.9,331.07,110.01,329.94,110.01 C327.25,110.01,325.07,109.72,323.44,109.22 C321.8,108.72,320.57,107.92,319.63,106.92 C318.75,105.92,318.13,104.72,317.75,103.22 C317.44,101.72,317.25,100.01,317.13,98.12 V70.6 H309.44 L309.4,62.9 L309.4,62.9 Z M343.8,62.9 H353.5 V69.2 H353.7 C355.07,66.5,357.07,64.61,359.7,63.406 C362.3,62.2,365,61.61,368.07,61.61 C371.75,61.61,374.9,62.21,377.57,63.51 C380.25,64.81,382.57,66.5,384.4,68.81 C386.2,71.11,387.5,73.72,388.4,76.72 C389.25,79.72,389.75,82.92,389.75,86.31 C389.75,89.4,389.4,92.51,388.57,95.4 C387.75,98.31,386.57,100.9,384.9,103.2 C383.25,105.5,381.2,107.2,378.7,108.61 C376.2,110.01,373.2,110.61,369.8,110.61 C368.3,110.61,366.8,110.51,365.3,110.2 S362.43,109.5,361,108.9 C359.6,108.31,358.3,107.5,357.2,106.61 C356,105.61,355.07,104.61,354.3,103.31 H354 V126.51 H343.8 V62.9 L343.8,62.9 Z M379.5,86.2 C379.5,84.11,379.2,82.11,378.7,80.11 C378.2,78.11,377.3,76.4,376.3,74.81 S373.93,72.01,372.3,71.11 C370.7,70.2,368.8,69.7,366.7,69.7 C362.4,69.7,359.2,71.2,357,74.2 C354.8,77.2,353.7,81.2,353.7,86.2 C353.7,88.61,354,90.7,354.57,92.7 C355.2,94.7,355.94,96.4,357.2,97.9 C358.3,99.31,359.7,100.5,361.3,101.31 C362.93,102.22,364.7,102.61,366.8,102.61 C369.1,102.61,371.1,102.11,372.7,101.2 S375.57,99,376.7,97.5 C377.7,96,378.5,94.2,379,92.3 C379.2,90.2,379.5,88.2,379.5,86.2 Z M397.5,45.2 H407.7 V54.906 H397.5 V45.2 Z M397.5,62.9 H407.7 V109.4 H397.5 V62.9 Z M416.8,45.2 H427 V109.4 H416.8 V45.2 Z M458.4,110.6 C454.7,110.6,451.4,110,448.5,108.69 C445.6,107.49,443.2,105.78,441.1,103.6 C439.1,101.39,437.6,98.8,436.5,95.89 C435.5,92.89,434.9,89.6,434.9,85.99 C434.9,82.49,435.4,79.19,436.5,76.19 C437.5,73.19,439.1,70.6,441.1,68.49 C443.1,66.28,445.6,64.58,448.5,63.384 S454.7,61.486,458.4,61.486 S465.4,62.09,468.25,63.384 C471.13,64.58,473.57,66.28,475.63,68.49 C477.63,70.69,479.13,73.28,480.25,76.19 C481.25,79.19,481.9,82.49,481.9,85.99 C481.9,89.58,481.4,92.89,480.25,95.89 C479.25,98.89,477.63,101.49,475.63,103.6 S471.13,107.5,468.25,108.69 C465.4,110,462.1,110.6,458.4,110.6 Z M458.4,102.5 C460.7,102.5,462.57,102,464.25,101.1 C465.94,100.1,467.25,98.89,468.4,97.3 C469.5,95.8,470.25,94,470.75,92 C471.25,90.1,471.57,88.1,471.57,86 C471.57,84,471.25,82.1,470.75,80.1 C470.25,78.1,469.44,76.39,468.4,74.8 C467.25,73.3,466,72,464.25,71.1 C462.57,70.1,460.57,69.69,458.4,69.69 C456.07,69.69,454.2,70.19,452.5,71.1 C450.8,72.1,449.5,73.3,448.4,74.8 C447.25,76.3,446.5,78.1,446,80.1 C445.5,82.1,445.2,84,445.2,86 C445.2,88,445.5,90,446,92 C446.5,93.9,447.3,95.7,448.4,97.3 S450.75,100.1,452.5,101.1 C454.1,102.1,456.1,102.5,458.4,102.5 Z M484.8,62.9 H492.5 V48.9 H502.7 V62.9 H511.9 V70.6 H502.7 V95.39 C502.7,96.49,502.7,97.39,502.8,98.19 C502.93,98.99,503.1,99.6,503.43,100.19 C503.75,100.69,504.25,101.19,504.93,101.39 S506.43,101.8,507.6,101.8 C508.3,101.8,509,101.8,509.8,101.8 C510.5,101.8,511.2,101.7,512,101.5 V109.4 C510.9,109.5,509.7,109.61,508.7,109.81 C507.57,109.9,506.5,110.01,505.4,110.01 C502.7,110.01,500.5,109.72,498.9,109.22 C497.25,108.72,496,107.92,495.07,106.92 C494.2,105.92,493.57,104.72,493.2,103.22 C492.9,101.72,492.7,100.01,492.57,98.12 V70.6 H484.8 L484.8,62.9 L484.8,62.9Z" fill="#191919"/>
		<path d="M88,82.8 L99.11,117.31 L61.344,89.728 Z M122.6,45.2 H75.8 L61.3,0.5 L46.8,45.2 L0,45.1 L37.9,72.72 L23.4,117.31 L122.6,45.2Z" fill="#00B67A"/>
		<polygon points="88,82.8 61.344,89.728 84.685,72.761" fill="#005128"/>
	</g>
</svg>
