<?xml version="1.0" encoding="UTF-8" standalone="no"?>
<svg width="512px" height="129px" viewBox="0 0 512 129" version="1.1" xmlns="http://www.w3.org/2000/svg" xmlns:xlink="http://www.w3.org/1999/xlink" preserveAspectRatio="xMidYMid">
	<g>
		<path d="M165.3,50.5 C165.3,41.3,156.4,31.6,140.9,31.6 C123.5,31.6,104.5,44.3,101.61,69.7 C98.61,95.4,114.61,106.81,130.72,106.81S155.22,100.51,163.8,92.22 C156.4,82.92,146.8,87.22,145,88.12 C143,89.12,140.4,90.53,135.1,90.53 C128.9,90.53,122.6,87.73,122.6,76.12 C162.3,72.1,165.3,59.6,165.3,50.5 Z M145.6,52 C145.28,54.9,144.2,59.7,124.1,62.5 C128.28,47.4,136.5,46.3,140.2,46.3 C143.7,46.2,145.9,48.9,145.6,52 Z M78.2,54.4 C78.2,54.4,69.61,81.3,69,83.5 C68.7,81.2,62.5,33,62.5,33 C47.9,33,40.1,43.4,36,54.3 C36,54.3,25.6,81.19,24.7,83.5 C24.598,81.4,23.098,54.6,23.098,54.6 C22.2,41.3,9.9,33.1,0,33.1 L12,106.1 C27.3,106,35.5,95.69,39.8,84.8 C39.8,84.8,49,61,49.4,60 C49.5,61,56,106.2,56,106.2 C71.3,106.2,79.6,96.5,84,85.9 L105.5,33.11 C90.3,33.1,82.3,43.4,78.2,54.4 Z M221.6,31.4 C212.2,31.4,204.9,36.5,198.9,44.094V44 L204.3,0.10142 C191.8,0.10142,181.62,11.002,179.62,27.203 L170.12,105.61 C177.3,105.61,185.03,103.51,189.12,98.2 C192.8,103,198.3,106.8,206.53,106.8 C227.72,106.8,242.25,82.19,242.25,59.196 C242,38,231.8,31.4,221.6,31.4 Z M219.6,69.1 C217.4,82,210.2,90.69,203.28,90.69 C196.28,90.69,193.38,87.6,193.38,87.6 C194.7,76.3,195.57,69.39,198.07,63.49 C200.57,57.49,206.66,47.99,212.88,47.99 C219,48,221.8,56.2,219.6,69.1 Z M294.9,33.1 H280.07 L280.2,32.304 C281.2,22.703,283.5,17.605,291,16.804 C296.1,16.304,298.4,13.605,299,10.705 C299.4,8.406,300.8,0.5053,300.8,0.5053 C271.2,0.3053,261.8,13.105,259.43,32.61 L259.3,33.01 H259 C254.2,33.01,248.9,38.406,248,45.406 L247.7,47.906 H257.57 L249.25,116.4 L246.75,128.72 C247.07,128.72,247.44,128.8,247.75,128.8 C261.63,128.3,270.44,117.31,272.44,101.4 L279,48 H283.6 C288.25,48,293.5,43.4,294.43,35.8 L294.9,33.1 Z M371.7,31.8 C354.7,31.8,338.57,44.3,333.57,64S336.07,107,361.2,107 C386.2,107,400.7,82.7,400.7,62.5 C400.7,42.5,387.1,31.8,371.7,31.8 Z M378.6,68.4 C377.75,77.31,373.8,90.9,363,90.9 C352.2,90.9,353.7,75.11,354.8,67.5 C355.93,59.5,360.43,48,370.1,48 C378.8,48.1,379.6,58.4,378.6,68.4 Z M484.9,54.4 C484.9,54.4,476.25,81.3,475.7,83.5 C475.4,81.2,469.2,33,469.2,33 C454.57,33,446.8,43.4,442.7,54.3 C442.7,54.3,432.3,81.19,431.4,83.5 C431.25,81.4,429.75,54.6,429.75,54.6 C428.9,41.3,416.57,33.1,406.63,33.1 L418.63,106.1 C433.94,106,442.13,95.69,446.44,84.8 C446.44,84.8,455.63,61,455.94,60 C456.07,61,462.57,106.2,462.57,106.2 C477.9,106.2,486.2,96.5,490.57,85.9 L512,33.1 C496.9,33.1,488.9,43.4,484.9,54.4 Z M308.9,0.5 L296.5,100.6 L296.5,100.6 L294,113 C294.3,113,294.7,113.1,295,113.1 L295,113.1 C308.4,112.89,317.9,101.19,319.6,86.39 L326.8,28.89 C328.9,11.4,318.4,0.5,308.9,0.5 Z" fill="#4353FF"/>
	</g>
</svg>
