<?xml version="1.0" encoding="utf-8"?>
<!-- Generator: Adobe Illustrator 23.0.2, SVG Export Plug-In . SVG Version: 6.00 Build 0)  -->
<svg version="1.1" id="Layer_1" xmlns="http://www.w3.org/2000/svg" xmlns:xlink="http://www.w3.org/1999/xlink" x="0px" y="0px"
	 viewBox="0 0 512 204" style="enable-background:new 0 0 512 204;" xml:space="preserve">
<style type="text/css">
	.st0{fill:#0066FF;}
</style>
<path class="st0" d="M136.6,0.3H66.8C29.9,0.3,0,30.2,0,67.1v69.8c0,36.9,29.9,66.8,66.8,66.8h69.8c36.9,0,66.8-29.9,66.8-66.8V67.1
	C203.4,30.2,173.5,0.3,136.6,0.3z M191.6,136.9c0,30.4-24.6,55-55,55H66.8c-30.4,0-55-24.6-55-55V67.1c0-30.4,24.6-55,55-55h69.8
	c30.4,0,55,24.6,55,55V136.9z M158.8,97.7h-17.5c-0.9-6.1-3.3-11.8-7-16.8l12.4-12.4c2.3-2.3,2.2-6.1-0.1-8.4
	c-2.3-2.2-5.9-2.2-8.2,0L126,72.4c-5-3.6-10.7-6-16.8-7V48c0-3.3-2.6-5.9-5.9-5.9c-3.3,0-5.9,2.6-5.9,5.9v17.5
	c-6.1,0.9-11.8,3.3-16.8,6.9L68.2,60.1c-2.3-2.3-6.1-2.2-8.4,0.1c-2.2,2.3-2.2,5.9,0,8.2l12.3,12.4c-3.6,5-6,10.7-7,16.8H47.7
	c-3.3,0-5.9,2.6-5.9,5.9s2.6,5.9,5.9,5.9h17.5c0.9,6.1,3.3,11.8,6.9,16.8l-12.3,12.4c-2.3,2.3-2.2,6.1,0.1,8.4
	c2.3,2.2,5.9,2.2,8.2,0l12.4-12.4c5,3.6,10.7,6,16.8,7v17.5c0,3.3,2.6,5.9,5.9,5.9c3.3,0,5.9-2.6,5.9-5.9v-17.5
	c6.1-0.9,11.8-3.3,16.8-7l12.4,12.4c2.3,2.3,6.1,2.2,8.4-0.1c2.2-2.3,2.2-5.9,0-8.2l-12.4-12.4c3.6-5,6-10.7,7-16.8h17.5
	c3.3,0,5.9-2.6,5.9-5.9S162.1,97.7,158.8,97.7z M103.3,130.3c-14.7,0-26.7-11.9-26.7-26.7s11.9-26.7,26.7-26.7
	c14.7,0,26.7,11.9,26.7,26.7c0,0,0,0,0,0C129.9,118.3,118,130.2,103.3,130.3z"/>
<path d="M240.7,137.8l9.4-13c7.8,8.5,18.8,13.3,30.4,13.2c13.8,0,19.3-6.8,19.3-13.1c0-8.6-10.2-11.2-21.9-14.2
	c-15.7-3.9-34.1-8.5-34.1-28.8c0-15.8,14-28.1,35-28.1c15,0,27,4.7,36,13.4l-9.6,12.5c-7.4-7.2-17.5-11.2-27.8-11
	c-9.9,0-16.3,4.7-16.3,11.9c0,7.5,9.8,9.9,21.2,12.8c15.8,4,34.7,8.9,34.7,29.8c0,16-11.2,29.6-37.1,29.6
	C262,153.1,249.2,146.9,240.7,137.8z M360,151.4l-37.7-96h19.1l29.1,77.7l29.1-77.7h19.1l-37.7,96H360z M422.1,103.5
	c0-30.1,22.6-49.7,50.4-49.7c18.7,0,30.9,8.9,38.7,20l-13.8,7.8c-5.7-8-15-12.8-24.8-12.8c-19,0-33.1,14.5-33.1,34.7
	s14.1,34.8,33.1,34.8c8.4-0.1,16.4-3.1,22.7-8.6v-14.9h-28.7V99.9H512v36c-10,11.3-24.5,17.6-39.6,17.4
	C444.7,153.2,422.1,133.5,422.1,103.5z"/>
</svg>
